:SAMPLES-PER-SECOND 30
:FULLY-SPECIFIED
:DEGREES
534
root  -20.8267 36.8763 -4.79653 139.763 -69.8138 -147.395
RightUpLeg  -10.2232 -13.0066 -4.52867
RightLeg  32.4288 20.2901 13.1582
RightFoot  -12.0858 0.066353 22.0064
RightToes  -1.16417e-010 0 -3.6325e-017
Spine  16.8604 -4.8669 -16.9641
Spine1  -11.0247 -7.36965 15.5903
HEad  2.14754 32.0413 17.0737
LeftShoulder1  -0.0234754 3.15118 17.2116
LeftArm  -42.6337 3.82699 -15.6138
LeftForeArm  -18.3923 -24.4361 -6.092
LeftHand  0.943382 7.97105 39.8926
RightShoulder  -0.133268 -6.52785 -4.58059
RightArm  -21.9537 -3.20207 13.2818
RightForeArm  -8.22229 47.1436 12.6631
RightHand  -1.26292 -0.153857 -27.6687
LeftUpLeg  3.93091 -2.25507 44.3106
LeftLeg  28.027 23.1622 13.0745
LeftFoot  29.629 10.2822 -27.6111
LeftToes  6.91183e-011 3.39355e-011 2.1261e-011
535
root  -20.8989 36.0766 -4.82696 142.719 -70.7646 -149.964
RightUpLeg  -14.2867 -11.7681 -6.01351
RightLeg  39.695 17.9607 15.1294
RightFoot  -16.2165 0.859537 22.5048
RightToes  -1.16417e-010 0 -3.6325e-017
Spine  17.1999 -4.84781 -17.1929
Spine1  -12.1774 -7.56467 20.0122
HEad  3.15245 33.5905 13.3387
LeftShoulder1  -0.0359167 2.96414 17.2792
LeftArm  -30.7637 5.61844 -11.3405
LeftForeArm  -2.05238 -21.5233 -5.10776
LeftHand  1.49748 8.94996 45.2796
RightShoulder  -0.170934 -6.84217 -3.77774
RightArm  -25.4786 -1.97819 14.9775
RightForeArm  -12.9723 43.2492 11.3387
RightHand  -1.16772 -0.478569 -27.2779
LeftUpLeg  1.19048 1.37001 44.5827
LeftLeg  32.636 17.486 12.0264
LeftFoot  23.1312 9.7007 -31.0801
LeftToes  6.91183e-011 3.39355e-011 2.1261e-011
536
root  -20.9556 35.3049 -4.66952 143.002 -72.944 -149.803
RightUpLeg  -17.4822 -11.8382 -8.05903
RightLeg  45.6512 16.1543 16.6967
RightFoot  -18.8698 1.42037 23.2625
RightToes  -1.16417e-010 0 -3.6325e-017
Spine  17.2918 -4.72367 -17.0034
Spine1  -11.898 -7.88375 24.5587
HEad  2.0704 33.7989 8.29002
LeftShoulder1  -0.0395095 2.85444 16.5822
LeftArm  -20.1299 6.69096 -7.51118
LeftForeArm  14.8185 -17.853 -5.45999
LeftHand  2.03844 9.81774 49.1707
RightShoulder  -0.200474 -6.96453 -3.01682
RightArm  -29.4474 -0.769392 15.8936
RightForeArm  -16.9566 39.9806 10.3645
RightHand  -1.0605 -0.888987 -27.0351
LeftUpLeg  -2.51203 4.21092 44.7852
LeftLeg  37.0863 11.9102 9.85405
LeftFoot  17.5367 8.84434 -33.8637
LeftToes  6.91183e-011 3.39355e-011 2.1261e-011
537
root  -20.9941 34.7008 -4.23142 137.588 -76.1564 -144.069
RightUpLeg  -18.6431 -12.9086 -10.1797
RightLeg  48.8287 14.4302 16.6993
RightFoot  -20.7452 1.83827 23.7619
RightToes  -1.16417e-010 0 -3.6325e-017
Spine  17.1428 -4.79913 -14.7239
Spine1  -10.3385 -8.35646 27.6887
HEad  -0.50826 32.2306 2.38626
LeftShoulder1  -0.0356033 2.83005 15.69
LeftArm  -11.5487 6.91625 -5.17039
LeftForeArm  28.8826 -15.1228 -6.76355
LeftHand  2.08613 9.77905 50.4891
RightShoulder  -0.20693 -6.78062 -2.42874
RightArm  -33.4786 -0.429513 16.4319
RightForeArm  -20.0003 37.9503 9.84154
RightHand  -1.03256 -1.07231 -27.4138
LeftUpLeg  -7.11096 5.41677 44.7751
LeftLeg  41.2564 6.89009 6.8081
LeftFoot  13.1734 7.8501 -35.4483
LeftToes  6.91183e-011 3.39355e-011 2.1261e-011
538
root  -20.9683 34.2834 -3.50974 128.456 -79.6106 -134.911
RightUpLeg  -18.5125 -13.4793 -12.9194
RightLeg  50.0202 12.5014 15.1704
RightFoot  -21.9138 2.11775 24.1734
RightToes  -1.16417e-010 0 -3.6325e-017
Spine  16.9801 -4.61282 -10.5356
Spine1  -8.66121 -8.18647 28.1695
HEad  -3.23935 28.758 -3.2842
LeftShoulder1  -0.043541 2.53922 14.8479
LeftArm  -3.90109 6.84444 -4.63262
LeftForeArm  34.9626 -14.1725 -7.73772
LeftHand  1.99102 9.57699 50.4922
RightShoulder  -0.213113 -6.55291 -1.67347
RightArm  -37.1461 -0.498763 16.6082
RightForeArm  -22.0447 36.6428 9.52462
RightHand  -1.10742 -0.895502 -28.22
LeftUpLeg  -11.5702 6.37757 43.7352
LeftLeg  45.2104 2.57335 3.17872
LeftFoot  9.46118 6.87255 -36.596
LeftToes  6.91183e-011 3.39355e-011 2.1261e-011
539
root  -20.847 34.0727 -2.58387 125.094 -83.2641 -131.802
RightUpLeg  -17.9854 -12.9873 -17.2315
RightLeg  49.9492 10.6965 13.0075
RightFoot  -21.7235 2.13984 24.8312
RightToes  -1.16417e-010 0 -3.6325e-017
Spine  17.1477 -3.74148 -6.10451
Spine1  -7.7012 -6.88435 26.0943
HEad  -5.1633 23.9558 -8.07894
LeftShoulder1  -0.0546393 1.94867 13.7048
LeftArm  1.20051 7.0635 -5.47286
LeftForeArm  34.0866 -14.0998 -8.25471
LeftHand  2.12123 9.86927 50.3445
RightShoulder  -0.228599 -6.42741 -0.737855
RightArm  -40.6377 0.175403 16.3314
RightForeArm  -23.2805 35.136 9.12102
RightHand  -1.23891 -0.516646 -29.0964
LeftUpLeg  -14.6818 8.37628 40.6941
LeftLeg  48.4959 -1.09736 -0.895687
LeftFoot  6.28222 5.98623 -37.5685
LeftToes  6.91183e-011 3.39355e-011 2.1261e-011
540
root  -20.6594 34.1194 -1.51753 117.188 -87.6016 -124.166
RightUpLeg  -16.9478 -11.9368 -23.0204
RightLeg  48.0407 9.3302 10.6299
RightFoot  -19.7111 1.78824 25.8816
RightToes  -1.16417e-010 0 -3.6325e-017
Spine  17.6775 -2.53027 -2.25155
Spine1  -7.36684 -4.97965 22.1439
HEad  -6.24824 18.736 -12.1969
LeftShoulder1  -0.043374 1.53908 12.1618
LeftArm  2.43879 7.71204 -7.43564
LeftForeArm  32.6669 -13.8124 -8.58809
LeftHand  2.21185 10.1113 49.8972
RightShoulder  -0.225921 -6.18831 -0.0678704
RightArm  -44.5158 1.82888 15.6686
RightForeArm  -24.0348 33.3884 8.64168
RightHand  -1.34103 -0.263067 -29.9133
LeftUpLeg  -16.3793 11.196 35.7292
LeftLeg  50.5735 -4.48379 -5.37864
LeftFoot  4.03536 5.04722 -36.371
LeftToes  6.91183e-011 3.39355e-011 2.1261e-011
541
root  -20.4701 34.4165 -0.323882 -98.6937 -87.4755 91.683
RightUpLeg  -14.7186 -10.5536 -29.1506
RightLeg  43.5381 7.84543 7.63727
RightFoot  -16.0352 1.02824 27.2948
RightToes  -1.16417e-010 0 -3.6325e-017
Spine  18.0586 -1.62484 1.57394
Spine1  -6.99876 -3.27582 17.0611
HEad  -6.69227 13.5134 -16.0483
LeftShoulder1  -0.015257 1.66755 10.5763
LeftArm  1.95477 8.66912 -10.5384
LeftForeArm  33.0215 -13.6637 -8.65899
LeftHand  2.04957 9.86576 48.9011
RightShoulder  -0.194322 -5.80613 -0.0485209
RightArm  -48.939 3.70716 14.7837
RightForeArm  -24.3181 32.3042 8.34767
RightHand  -1.35699 -0.301637 -30.4703
LeftUpLeg  -17.436 13.4734 29.7398
LeftLeg  51.3122 -7.86902 -9.95551
LeftFoot  2.75149 4.02638 -31.9305
LeftToes  6.91183e-011 3.39355e-011 2.1261e-011
542
root  -20.3183 34.9017 0.999782 -62.7731 -82.9233 56.1013
RightUpLeg  -10.9763 -8.83593 -34.9129
RightLeg  36.5637 5.00859 3.74968
RightFoot  -10.839 -0.209661 29.2059
RightToes  -1.16417e-010 0 -3.6325e-017
Spine  17.7383 -1.1195 5.63909
Spine1  -6.33085 -1.95185 11.6722
HEad  -6.21247 8.08631 -19.5345
LeftShoulder1  0.00709347 2.10289 9.06549
LeftArm  3.10494 9.62101 -14.5373
LeftForeArm  31.437 -14.5141 -8.33825
LeftHand  1.8129 9.45487 47.7735
RightShoulder  -0.161827 -5.5853 -0.772627
RightArm  -53.1547 4.88155 13.6327
RightForeArm  -23.8089 32.5634 8.39873
RightHand  -1.35159 -0.34134 -30.581
LeftUpLeg  -18.1297 13.9573 23.1987
LeftLeg  50.4803 -11.247 -13.8119
LeftFoot  1.74614 3.13015 -26.9314
LeftToes  6.91183e-011 3.39355e-011 2.1261e-011
543
root  -20.208 35.4644 2.39489 -58.3927 -77.9057 52.5935
RightUpLeg  -6.43579 -7.32499 -40.4324
RightLeg  28.2964 -0.494279 -0.44108
RightFoot  -3.8484 -2.17163 31.7476
RightToes  -1.16417e-010 0 -3.6325e-017
Spine  16.6627 -0.479005 9.54379
Spine1  -5.82037 -0.49733 6.34561
HEad  -4.3374 2.13839 -22.0086
LeftShoulder1  0.0233149 2.34298 7.40721
LeftArm  6.93044 9.93445 -18.5666
LeftForeArm  25.9683 -16.0854 -7.82039
LeftHand  1.71077 9.32662 46.7021
RightShoulder  -0.135986 -5.48784 -1.82031
RightArm  -55.8064 4.21212 11.7186
RightForeArm  -22.4874 34.1247 8.78554
RightHand  -1.41257 -0.0872871 -30.4397
LeftUpLeg  -18.065 12.9737 16.2022
LeftLeg  47.755 -14.4942 -16.0762
LeftFoot  0.0843719 2.48088 -24.4991
LeftToes  6.91183e-011 3.39355e-011 2.1261e-011
544
root  -20.1167 35.9795 3.79923 -57.6253 -73.2165 53.2639
RightUpLeg  -2.38824 -6.89074 -45.7285
RightLeg  20.0529 -8.83296 -3.84962
RightFoot  5.14341 -4.95593 33.5876
RightToes  -1.16417e-010 0 -3.6325e-017
Spine  15.5579 0.789567 13.4913
Spine1  -6.13177 1.79806 0.216042
HEad  -1.14215 -4.48847 -23.0477
LeftShoulder1  0.0411711 2.27105 5.83717
LeftArm  12.3081 9.16847 -21.8704
LeftForeArm  19.3554 -17.5513 -7.34359
LeftHand  1.66282 9.32513 45.5665
RightShoulder  -0.0967453 -5.01469 -2.27609
RightArm  -55.686 0.464474 8.5312
RightForeArm  -20.9852 36.9736 9.58194
RightHand  -1.47263 0.128678 -30.4926
LeftUpLeg  -17.0598 12.5823 9.08162
LeftLeg  43.6179 -17.1801 -16.4414
LeftFoot  -2.59505 1.86702 -23.9018
LeftToes  6.91183e-011 3.39355e-011 2.1261e-011
545
root  -19.9735 36.312 5.14007 -59.2591 -69.8833 56.422
RightUpLeg  -0.0467616 -10.1102 -49.7432
RightLeg  12.905 -15.4019 -6.09404
RightFoot  14.7561 -7.38587 31.7232
RightToes  -1.16417e-010 0 -3.6325e-017
Spine  15.8761 2.47358 18.4326
Spine1  -7.53203 5.0176 -7.72935
HEad  2.5802 -11.6614 -23.1544
LeftShoulder1  0.0409715 2.47817 5.09794
LeftArm  17.5158 7.72234 -24.9515
LeftForeArm  13.2624 -18.9503 -6.73419
LeftHand  1.49804 9.05069 44.2679
RightShoulder  -0.0354812 -4.0278 -1.637
RightArm  -52.3893 -6.31944 4.22194
RightForeArm  -19.3329 41.2636 10.9577
RightHand  -1.44218 -0.0664862 -30.937
LeftUpLeg  -15.814 14.3228 2.83617
LeftLeg  39.8925 -18.6669 -15.6806
LeftFoot  -5.83497 1.13337 -22.4949
LeftToes  6.91183e-011 3.39355e-011 2.1261e-011
546
root  -19.6806 36.3611 6.33209 -61.162 -68.3133 59.318
RightUpLeg  -0.0493298 -17.0579 -51.6454
RightLeg  8.41378 -15.4634 -7.75941
RightFoot  21.9042 -7.62104 25.6668
RightToes  -1.16417e-010 0 -3.6325e-017
Spine  18.3932 3.70211 24.1967
Spine1  -9.60844 8.22594 -16.3655
HEad  5.56348 -18.7005 -23.1635
LeftShoulder1  -0.00673291 3.7023 5.26127
LeftArm  19.8335 6.75415 -28.8371
LeftForeArm  6.33021 -20.9499 -5.68693
LeftHand  1.21698 8.51076 42.3682
RightShoulder  0.0406594 -2.99645 -0.492345
RightArm  -46.6076 -14.1301 -0.533961
RightForeArm  -16.0593 46.2708 12.7611
RightHand  -1.41059 -0.306169 -31.6396
LeftUpLeg  -15.6343 16.8565 -1.5953
LeftLeg  38.707 -18.5543 -14.9607
LeftFoot  -9.08226 0.452335 -19.9936
LeftToes  6.91183e-011 3.39355e-011 2.1261e-011
